<svg xmlns="http://www.w3.org/2000/svg" width="512" height="512" viewBox="0 0 108 108">
  <defs>
    <linearGradient id="bg" x1="0" y1="0" x2="1" y2="1">
      <stop offset="0" stop-color="#0B2545"/>
      <stop offset="0.55" stop-color="#1E69B4"/>
      <stop offset="1" stop-color="#5EC5E8"/>
    </linearGradient>
  </defs>
  <rect width="108" height="108" rx="24" fill="url(#bg)"/>
  <circle cx="54" cy="54" r="40" fill="#F7FBFF"/>
  <circle cx="72" cy="29" r="12" fill="#F6B84C"/>
  <g stroke="#F6B84C" stroke-width="4" stroke-linecap="round" fill="none">
    <path d="M72 12v6M72 40v6M55 29h6M83 29h6M60 17l4 4M80 37l4 4M84 17l-4 4M64 37l-4 4"/>
  </g>
  <path fill="#fff" stroke="#D9E7F4" stroke-width="1.5" d="M31 62c-7.5 0-13-4.8-13-11.2 0-5.8 4.7-10.6 10.8-11.1 3.2-8.7 11.5-14.4 21.1-14.4 12.8 0 23 10.2 23 22.8 0 .8 0 1.5-.1 2.2 7 1.2 12.2 6.3 12.2 12.7 0 7.2-6.3 13-14.2 13H31z"/>
  <path fill="#1E69B4" d="M45 51c0-7.1 5.7-12.8 12.8-12.8S70.6 43.9 70.6 51c0 9.6-12.8 22.5-12.8 22.5S45 60.6 45 51z"/>
  <circle cx="57.8" cy="51" r="5.2" fill="#fff"/>
  <path fill="#49BE94" d="M38 77h31c3.4 0 6.2 2.8 6.2 6.2V90H31.8v-6.8C31.8 79.8 34.6 77 38 77z"/>
  <path fill="#F7FBFF" d="M47 77l7 9 7-9H47z"/>
  <path stroke="#fff" stroke-width="3" stroke-linecap="round" stroke-linejoin="round" fill="none" d="M42 85l5 5 10-11"/>
</svg>